# xmcd
#
# Track frame offsets: 
#        150
#        15208
#        34115
#        47688
#        65665
#        84675
#        102603
#        123108
#        143108
#        161267
#        178268
#        194948
#        213230
#        229530
#
# Disc length: 3271 seconds
#
# Revision: 0
# Processed by: cddbd v1.5.1PL2 Copyright (c) Steve Scherf et al.
# Submitted via: ExactAudioCopy v0.95b3
#
DISCID=bf0cc50e
DTITLE=คาราวาน - รวม หงา คาราวาน
DYEAR=1900
DGENRE=
TTITLE0=ดอกไม้ให้คุณ
TTITLE1=เหงา
TTITLE2=ช่างมันฉันไม่แคร์
TTITLE3=เมืองดาหลา
TTITLE4=แสงดาวแห่งศรัทธา
TTITLE5=แม้เราจะไม่พบกัน
TTITLE6=อีแหมะ
TTITLE7=คนตีเหล็ก
TTITLE8=ฉันเป็นดอกไม้
TTITLE9=คนกับควาย
TTITLE10=ดวงดาว ดวงตา ดวงใจ
TTITLE11=ใกล้ตาไกลตีน
TTITLE12=กระต่ายกับเต่า
TTITLE13=ถนนมิตรภาพ
EXTD=
EXTT0=
EXTT1=
EXTT2=
EXTT3=
EXTT4=
EXTT5=
EXTT6=
EXTT7=
EXTT8=
EXTT9=
EXTT10=
EXTT11=
EXTT12=
EXTT13=
PLAYORDER=
